<svg width="85" height="85" viewBox="0 0 85 85" fill="none" xmlns="http://www.w3.org/2000/svg">
<path d="M42.5 14.1667C44.3787 14.1667 46.1803 13.4204 47.5087 12.092C48.8371 10.7637 49.5834 8.96199 49.5834 7.08337C47.7048 7.08337 45.9031 7.82965 44.5747 9.15803C43.2463 10.4864 42.5 12.2881 42.5 14.1667M31.875 24.7917C21.25 24.7917 17.7084 35.4167 17.7084 44.2709C17.7084 54.8959 24.7917 70.8334 31.875 70.8334C35.7284 70.6705 37.8215 69.0625 42.5 69.0625C47.1467 69.0625 47.8125 70.8334 53.125 70.8334C58.4375 70.8334 67.2917 60.2084 67.2917 53.125C67.1925 53.0896 58.5367 51.6977 58.4375 42.5C58.3702 34.8146 66.9942 32.038 67.2917 31.875C63.6686 26.5909 56.8402 24.9227 54.8959 24.7917C49.8207 24.3986 44.873 28.3334 42.5 28.3334C40.0917 28.3334 35.7709 24.7917 31.875 24.7917Z" stroke="url(#paint0_linear_501_2)" stroke-width="2" stroke-linecap="round" stroke-linejoin="round"/>
<defs>
<linearGradient id="paint0_linear_501_2" x1="89.5" y1="39" x2="-3.5" y2="39" gradientUnits="userSpaceOnUse">
<stop stop-color="#E85DB0"/>
<stop offset="1" stop-color="#EA6E70"/>
</linearGradient>
</defs>
</svg>
