<svg width="58" height="58" viewBox="0 0 58 58" fill="none" xmlns="http://www.w3.org/2000/svg">
<g clip-path="url(#clip0_6_8)">
<path d="M16.5851 42.7751C15.8753 42.7761 15.1899 42.516 14.6595 42.0443L-0.0145264 29.0001L15.4744 15.2309C16.0517 14.737 16.7998 14.4894 17.5578 14.5413C18.3158 14.5933 19.0231 14.9406 19.5277 15.5086C20.0322 16.0766 20.2937 16.82 20.256 17.5788C20.2182 18.3376 19.8841 19.0513 19.3256 19.5664L8.71447 29.0001L18.5107 37.7059C18.9508 38.0964 19.2617 38.6115 19.4021 39.1829C19.5426 39.7543 19.5059 40.3549 19.2969 40.9049C19.088 41.4549 18.7167 41.9284 18.2323 42.2624C17.748 42.5965 17.1735 42.7753 16.5851 42.7751ZM42.5256 42.7693L58.0145 29.0001L43.3405 15.9559C42.7655 15.4452 42.0113 15.1838 41.2436 15.2292C40.476 15.2746 39.7578 15.6231 39.2471 16.198C38.7364 16.773 38.475 17.5272 38.5204 18.2949C38.5658 19.0625 38.9143 19.7807 39.4893 20.2914L49.2855 29.0001L38.6744 38.4309C38.0991 38.9416 37.7502 39.6599 37.7045 40.4278C37.6588 41.1958 37.9201 41.9504 38.4308 42.5257C38.9415 43.101 39.6598 43.4499 40.4277 43.4956C41.1956 43.5412 41.9503 43.28 42.5256 42.7693ZM28.9594 46.8786L34.7594 12.0786C34.8335 11.6983 34.8307 11.3069 34.7511 10.9277C34.6715 10.5485 34.5167 10.1891 34.2959 9.87067C34.075 9.55228 33.7926 9.28138 33.4653 9.07397C33.138 8.86655 32.7724 8.72684 32.3902 8.66307C32.008 8.59931 31.6169 8.61278 31.24 8.70271C30.8631 8.79263 30.508 8.95718 30.1958 9.18663C29.8835 9.41608 29.6204 9.70579 29.422 10.0386C29.2236 10.3715 29.0939 10.7407 29.0406 11.1245L23.2406 45.9245C23.1664 46.3048 23.1692 46.6962 23.2488 47.0754C23.3284 47.4546 23.4832 47.814 23.7041 48.1324C23.9249 48.4508 24.2074 48.7217 24.5347 48.9291C24.862 49.1365 25.2275 49.2763 25.6097 49.34C25.9919 49.4038 26.383 49.3903 26.76 49.3004C27.1369 49.2105 27.4919 49.0459 27.8042 48.8165C28.1164 48.587 28.3795 48.2973 28.5779 47.9645C28.7764 47.6316 28.9061 47.2624 28.9594 46.8786Z" fill="url(#paint0_linear_6_8)"/>
</g>
<defs>
<linearGradient id="paint0_linear_6_8" x1="2.5" y1="29" x2="58" y2="29" gradientUnits="userSpaceOnUse">
<stop stop-color="#EA6E70"/>
<stop offset="1" stop-color="#E85DB0"/>
</linearGradient>
<clipPath id="clip0_6_8">
<rect width="58" height="58" fill="white"/>
</clipPath>
</defs>
</svg>
