<svg width="58" height="58" viewBox="0 0 58 58" fill="none" xmlns="http://www.w3.org/2000/svg">
<path d="M13.7917 5C9.48333 5 6 8.41026 6 12.6282V39.3718C6 43.5897 9.48333 47 13.7917 47H42.2083C46.5167 47 50 43.5897 50 39.3718V12.6282C50 8.41026 46.5167 5 42.2083 5H13.7917ZM34.5267 14.2077H38.2483C38.34 14.1897 38.4133 14.2615 38.4317 14.3333V31.4564C38.4317 31.7795 38.45 32.1385 38.4683 32.5333C38.505 32.9103 38.5233 33.2692 38.5417 33.5744C38.5417 33.7 38.4867 33.8077 38.3583 33.8615C37.405 34.2564 36.3967 34.5436 35.37 34.7231C34.4533 34.8846 33.5 34.9744 32.5467 34.9744C31.19 34.9923 29.8333 34.7231 28.605 34.1667C27.45 33.6462 26.4967 32.7846 25.8367 31.7256C25.1583 30.6308 24.8283 29.2667 24.8283 27.6333C24.81 26.3051 25.1583 24.9949 25.8367 23.8462C26.5333 22.6795 27.5417 21.7103 28.7517 21.0641C30.035 20.3641 31.575 20.0231 33.39 20.0231C33.4817 20.0231 33.61 20.0231 33.775 20.041C33.94 20.059 34.1233 20.059 34.3433 20.0769V14.4051C34.3433 14.2795 34.3983 14.2077 34.5267 14.2077ZM18.155 15.7513H21.73C21.84 15.7333 21.95 15.8051 21.9683 15.9308C21.9867 15.9487 21.9867 15.9667 21.9867 15.9846V34.4C21.9867 34.5974 21.895 34.6872 21.73 34.6872H18.1367C17.9717 34.6872 17.8983 34.5974 17.8983 34.4V15.9846C17.8983 15.8231 17.99 15.7513 18.155 15.7513ZM33.2433 23.3615C32.5283 23.3615 31.8133 23.5051 31.1717 23.8282C30.5483 24.1333 30.0167 24.582 29.6133 25.1564C29.21 25.7308 29.0083 26.5026 29.0083 27.4359C28.99 28.0641 29.1 28.6923 29.32 29.2846C29.5033 29.7692 29.7783 30.2 30.145 30.559C30.4933 30.882 30.915 31.1333 31.3917 31.2769C31.8867 31.4385 32.4 31.5103 32.9133 31.5103C33.1883 31.5103 33.445 31.4923 33.6833 31.4744C33.9217 31.4923 34.1417 31.4564 34.3433 31.3846V23.4872C33.983 23.4029 33.6138 23.3607 33.2433 23.3615Z" fill="url(#paint0_linear_6_36)"/>
<defs>
<linearGradient id="paint0_linear_6_36" x1="50" y1="26" x2="6" y2="26" gradientUnits="userSpaceOnUse">
<stop stop-color="#E85DB0"/>
<stop offset="1" stop-color="#EA6E70"/>
</linearGradient>
</defs>
</svg>
